<?xml version="1.0" encoding="utf-8"?>
<!-- Generator: Adobe Illustrator 27.5.0, SVG Export Plug-In . SVG Version: 6.00 Build 0)  -->
<svg version="1.1" xmlns="http://www.w3.org/2000/svg" xmlns:xlink="http://www.w3.org/1999/xlink" x="0px" y="0px"
	 viewBox="0 0 500 500" style="enable-background:new 0 0 500 500;" xml:space="preserve">
<g id="BACKGROUND">
	<path style="fill:#FBEED1;" d="M335.55,381.512c31.105-6.73,61.836-17.921,86.9-37.533c25.064-19.612,44-48.465,46.782-80.167
		c4.01-45.678-26.22-89.063-65.207-113.2c-38.987-24.137-85.48-32.517-130.922-38.638c-43.088-5.803-87.262-9.959-129.747-0.722
		C58.467,129.709,13.927,200.439,36.039,284.537c16.716,63.576,98.614,86.897,155.59,98.01
		C239.029,391.793,288.309,391.733,335.55,381.512z"/>
</g>
<g id="OBJECTS">
	<g>
		<path style="fill:#E8916A;" d="M256.649,44.098c-42.919,0-77.711,34.792-77.711,77.711c0,42.919,77.711,131.225,77.711,131.225
			s77.711-88.306,77.711-131.225C334.36,78.89,299.568,44.098,256.649,44.098z M256.649,141.688
			c-15.637,0-28.313-12.676-28.313-28.313s12.676-28.313,28.313-28.313c15.637,0,28.313,12.676,28.313,28.313
			S272.286,141.688,256.649,141.688z"/>
		<g>
			<g>
				<g>
					<path style="fill:#F4D071;" d="M264.053,207.821c-3.4,6.264-19.956,11.493-32.614,28.05c-2.125,2.772-4.73,9.498-4.767,12.972
						h-8.426c-1.053-19.088,8.038-38.508,22.968-50.464c3.622-2.883,7.761-5.414,12.362-5.839c2.975-0.277,6.135,0.536,8.463,2.31
						c0.554,0.407,1.053,0.887,1.478,1.404c0.61,0.702,1.109,1.515,1.46,2.402C266.141,201.594,265.569,205.031,264.053,207.821z"/>
					<path style="fill:#EFB041;" d="M263.517,196.253c-3.917,1.46-7.687,3.308-11.253,5.507
						c-16.446,10.218-27.329,27.828-29.195,47.082h-1.848c0.517-5.432,1.7-10.791,3.548-15.928
						c6.338-17.443,20.086-31.357,37.27-38.065C262.594,195.256,263.092,195.736,263.517,196.253z"/>
				</g>
				<g>
					<path style="fill:#EFB041;" d="M226.672,248.842h-16.519c-3.603-15.595-12.103-29.454-23.874-40.319
						c-5.71-5.266-12.159-9.664-17.942-14.856c-4.601-4.139-9.036-9.387-9.091-15.577c-0.018-4.361,2.291-8.389,5.673-11.216
						c0.591-0.48,1.201-0.942,1.848-1.33c1.035-0.665,2.125-1.22,3.271-1.645c5.932-2.199,12.621-1.423,18.589,0.684
						c8.851,3.123,16.575,9.073,22.451,16.372c5.895,7.317,9.997,15.947,12.713,24.927
						C227.947,219.702,229.111,234.633,226.672,248.842z"/>
					<path style="fill:#E89236;" d="M221.794,248.842h-1.848c-0.019-5.839-0.517-11.678-1.552-17.425
						c-2.975-16.834-10.385-32.873-22.377-45.179c-8.592-8.833-19.328-15.725-31.099-19.365c0.591-0.48,1.201-0.942,1.848-1.33
						c4.601,1.515,9.036,3.492,13.249,5.913c14.561,8.334,26.091,21.361,33.057,36.587
						C218.948,220.811,221.738,234.817,221.794,248.842z"/>
				</g>
			</g>
			<g>
				<g>
					<path style="fill:#E89236;" d="M340.725,221.321c2.156,3.973,12.656,7.289,20.683,17.788c1.348,1.758,3,6.023,3.023,8.226
						h5.344c0.668-12.105-5.097-24.421-14.566-32.003c-2.297-1.828-4.922-3.434-7.84-3.703c-1.887-0.176-3.891,0.34-5.367,1.465
						c-0.352,0.258-0.668,0.562-0.938,0.891c-0.387,0.445-0.703,0.961-0.926,1.523C339.401,217.372,339.764,219.552,340.725,221.321
						z"/>
					<path style="fill:#EFB041;" d="M341.065,213.985c2.484,0.926,4.875,2.098,7.137,3.492c10.429,6.48,17.331,17.648,18.515,29.858
						h1.172c-0.328-3.445-1.078-6.844-2.25-10.101c-4.019-11.062-12.738-19.886-23.636-24.14
						C341.651,213.353,341.335,213.657,341.065,213.985z"/>
				</g>
				<g>
					<path style="fill:#EFB041;" d="M364.432,247.336h10.476c2.285-9.89,7.675-18.679,15.14-25.57
						c3.621-3.34,7.711-6.129,11.379-9.422c2.918-2.625,5.73-5.953,5.765-9.879c0.012-2.765-1.453-5.32-3.598-7.113
						c-0.375-0.305-0.762-0.598-1.172-0.844c-0.656-0.422-1.348-0.773-2.074-1.043c-3.762-1.395-8.004-0.902-11.789,0.434
						c-5.613,1.98-10.511,5.754-14.238,10.382c-3.738,4.641-6.34,10.113-8.062,15.808
						C363.623,228.856,362.885,238.324,364.432,247.336z"/>
					<path style="fill:#E89236;" d="M367.525,247.336h1.172c0.012-3.703,0.328-7.406,0.984-11.05
						c1.887-10.675,6.586-20.847,14.191-28.651c5.449-5.601,12.257-9.972,19.722-12.281c-0.375-0.305-0.762-0.598-1.172-0.844
						c-2.918,0.961-5.73,2.215-8.402,3.75c-9.234,5.285-16.546,13.546-20.964,23.202C369.33,229.559,367.56,238.442,367.525,247.336
						z"/>
				</g>
			</g>
			<g>
				<path style="fill:#DF4268;" d="M378.351,179.613c-1.698,2.692-4.184,4.764-6.628,6.814
					c-11.453,9.527-22.886,19.054-34.339,28.581c3.852-1.947,6.11-2.465,10.355-3.231c4.246-0.787,8.947-0.207,12.282,2.506
					c1.346,1.098,2.382,2.589,3.003,4.225c0.269,0.663,0.435,1.346,0.538,2.05c0.269,1.843,0,3.707-0.994,5.302
					c-2.444,3.956-7.746,4.743-12.344,5.406c-17.957,2.63-35.416,10.563-46.765,24.729h-10.894
					c3.624-18.039-0.684-36.016-6.752-53.372c-2.009-5.758-4.515-11.453-4.888-17.542s1.926-12.82,7.311-15.658
					c0.911-0.476,1.864-0.828,2.837-1.036h0.021c0.704-0.166,1.388-0.249,2.092-0.269c4.929-0.228,10.086,2.444,13.214,6.441
					c4.225,5.364,5.468,12.489,5.737,19.323c0.269,6.835-0.186,14.063-0.87,21.042c6.006-14.87,7.787-30.507,5.592-46.413
					c-0.891-6.462-2.485-12.944-1.657-19.406c0.828-6.462,4.826-13.11,11.163-14.58c0.435-0.104,0.87-0.166,1.305-0.228h0.021
					c0.725-0.083,1.45-0.083,2.175-0.021c3.293,0.207,6.503,1.698,9.009,3.894c3.397,2.982,5.613,7.104,7.145,11.329
					c4.494,12.427,4.929,27.318-1.056,39.082c3.024-6.71,7.497-12.261,12.903-17.252c3.169-2.899,6.855-5.509,11.101-6.11
					c3.5-0.518,7.394,0.704,9.548,3.376c0.435,0.518,0.787,1.098,1.056,1.74c0.041,0.062,0.062,0.104,0.083,0.166
					C380.836,173.441,380.049,176.9,378.351,179.613z"/>
				<g>
					<path style="fill:#C6204F;" d="M307.768,243.32c-0.062,0.083-0.145,0.145-0.207,0.228c5.116-8.139,10.708-15.947,16.776-23.403
						c11.474-14.104,24.563-26.945,38.895-38.15c5.281-4.101,10.728-7.994,16.341-11.66c-0.269-0.642-0.621-1.222-1.056-1.74
						c-12.365,8.036-23.963,17.232-34.65,27.401c-9.548,9.092-18.371,18.971-26.344,29.492c2.444-4.805,4.743-9.672,6.814-14.684
						c7.083-17.066,11.37-35.561,10.107-54.118c-0.518-7.642-2.009-15.202-4.577-22.409c-0.725-0.062-1.45-0.062-2.175,0.021
						c5.468,14.87,6.006,31.273,3.335,46.827c-3.189,18.516-10.915,35.83-19.965,52.15c-1.864,3.335-3.769,6.648-5.737,9.921
						c-0.124,0.166-0.228,0.331-0.311,0.518c-1.222,2.071-2.485,4.142-3.749,6.193c-0.124,0.186-0.228,0.393-0.352,0.601
						c4.349-22.181,3.459-45.336-2.547-67.145c-1.429-5.178-3.148-10.273-5.178-15.243c-0.704,0.021-1.388,0.104-2.092,0.269
						c9.32,23.031,12.489,48.526,9.216,73.172c-0.642,4.784-1.533,9.527-2.651,14.229v0.021c-0.062,0.062-0.104,0.124-0.145,0.186
						h0.083h0.248h0.186h1.678h0.249h0.249h0.249c11.35-17.521,29.534-29.948,50.1-34.007c4.287-0.849,8.637-1.326,13.007-1.429
						c-0.104-0.704-0.269-1.388-0.538-2.05C342.231,219.191,322.141,228.097,307.768,243.32z"/>
				</g>
			</g>
			<g>
				<path style="fill:#DF4268;" d="M180.853,195.951c0.059,1.99-0.506,3.932-1.058,5.849c-2.614,8.942-5.216,17.877-7.83,26.82
					c1.318-2.355,2.308-3.412,4.243-5.293c1.928-1.891,4.569-3.232,7.246-2.99c1.082,0.099,2.14,0.511,3.034,1.143
					c0.371,0.25,0.696,0.546,0.995,0.876c0.784,0.862,1.295,1.923,1.336,3.098c0.114,2.906-2.361,5.166-4.515,7.115
					c-8.396,7.636-14.682,17.849-15.621,29.161l-5.651,3.805c-4.421-10.623-12.934-18.444-22.144-25.327
					c-3.053-2.285-6.342-4.364-8.662-7.392c-2.32-3.028-3.479-7.323-1.676-10.675c0.306-0.565,0.678-1.081,1.11-1.528l0.011-0.007
					c0.307-0.332,0.633-0.614,0.991-0.87c2.477-1.84,6.086-2.255,9.104-1.274c4.065,1.307,7.198,4.568,9.725,8.02
					c2.527,3.451,4.815,7.36,6.898,11.219c-2.078-9.811-6.616-18.545-13.31-26.029c-2.719-3.041-5.81-5.846-7.638-9.488
					c-1.827-3.641-2.076-8.486,0.698-11.462c0.189-0.206,0.393-0.39,0.597-0.574l0.011-0.007c0.347-0.296,0.723-0.549,1.121-0.77
					c1.781-1.043,3.967-1.391,6.033-1.127c2.804,0.361,5.393,1.725,7.663,3.381c6.672,4.876,12.098,12.449,13.102,20.642
					c-0.775-4.537-0.393-8.979,0.667-13.456c0.631-2.611,1.632-5.252,3.624-7.047c1.635-1.491,4.081-2.217,6.132-1.584
					c0.407,0.117,0.792,0.295,1.156,0.534c0.043,0.018,0.068,0.032,0.101,0.057C179.986,191.881,180.786,193.95,180.853,195.951z"/>
				<g>
					<path style="fill:#C6204F;" d="M166.491,253.65c-0.003,0.065-0.025,0.126-0.028,0.19c-0.189-6.009-0.016-12.012,0.528-17.999
						c1.026-11.324,3.33-22.556,6.851-33.374c1.307-3.972,2.773-7.894,4.404-11.756c-0.364-0.239-0.749-0.417-1.156-0.534
						c-3.607,8.487-6.411,17.308-8.403,26.316c-1.777,8.051-2.903,16.257-3.365,24.5c-0.411-3.346-0.918-6.674-1.594-9.997
						c-2.286-11.327-6.522-22.418-13.659-31.602c-2.938-3.783-6.352-7.184-10.201-10.026c-0.398,0.221-0.774,0.474-1.121,0.77
						c8.03,5.804,14.039,14.125,18.085,23.126c4.813,10.719,6.853,22.398,7.858,34.025c0.198,2.381,0.367,4.765,0.489,7.15
						c-0.007,0.129-0.002,0.251,0.02,0.377c0.09,1.501,0.158,3.017,0.218,4.522c0.001,0.14,0.019,0.284,0.027,0.435
						c-5.491-13.025-14.041-24.725-24.774-33.94c-2.55-2.187-5.221-4.229-8.01-6.099c-0.358,0.257-0.684,0.538-0.991,0.87
						c12.879,8.691,23.427,20.81,30.338,34.737c1.338,2.706,2.533,5.477,3.594,8.307l0.007,0.011c-0.01,0.054-0.01,0.101-0.01,0.147
						l0.043-0.029l0.129-0.087l0.097-0.065l0.87-0.586l0.129-0.087l0.129-0.087l0.129-0.087c-0.233-13.053,4.86-25.85,14.11-35.139
						c1.927-1.938,4.017-3.704,6.248-5.284c-0.3-0.329-0.624-0.626-0.995-0.876C175.94,229.097,168.63,240.734,166.491,253.65z"/>
				</g>
			</g>
		</g>
		<g>
			<g>
				<g>
					<path style="fill:#21255C;" d="M277.339,407.885h-20.248c-9.099,0-16.474,13.841-16.474,30.916
						c0,17.074,7.376,30.915,16.474,30.915c0.291,0,0.58-0.015,0.867-0.043h18.508v-0.001c0.289,0.028,0.58,0.044,0.874,0.044
						c9.099,0,16.474-13.841,16.474-30.915C293.813,421.726,286.438,407.885,277.339,407.885z"/>
				</g>
				<g>
					<path style="fill:#10164F;" d="M402.633,441.359h-39.735c0-21.16,8.892-38.302,19.868-38.302
						C393.742,403.057,402.633,420.199,402.633,441.359z"/>
					<g>
						<path style="fill:#21255C;" d="M380.22,407.885h-20.249c-9.099,0-16.474,13.841-16.474,30.916
							c0,17.074,7.376,30.915,16.474,30.915c0.291,0,0.58-0.015,0.867-0.043h18.508v-0.001c0.289,0.028,0.581,0.044,0.874,0.044
							c9.099,0,16.474-13.841,16.474-30.915C396.694,421.726,389.318,407.885,380.22,407.885z"/>
						<g>
							<ellipse style="fill:#495375;" cx="380.22" cy="438.8" rx="16.474" ry="30.916"/>
							<path style="fill:#C7D2D7;" d="M378.058,423.54c0.88-0.827,1.846-1.285,2.859-1.285c4.112,0,7.447,7.521,7.447,16.799
								c0,9.278-3.335,16.8-7.447,16.8c-1.013,0-1.979-0.458-2.859-1.285c2.694-2.529,4.588-8.522,4.588-15.515
								C382.646,432.062,380.751,426.069,378.058,423.54z"/>
							<path style="fill:#99A3B0;" d="M378.058,423.54c2.694,2.529,4.588,8.522,4.588,15.515c0,6.993-1.895,12.986-4.588,15.515
								c-2.694-2.529-4.588-8.522-4.588-15.515C373.469,432.062,375.364,426.069,378.058,423.54z"/>
						</g>
					</g>
					<g>
						<rect x="126.96" y="242.676" style="fill:#ECA85E;" width="163.188" height="198.684"/>
						<path style="fill:#F4D071;" d="M275.599,242.669v198.688h87.298c0-1.563,0.043-3.105,0.141-4.614
							c0.022-0.271,0.033-0.543,0.054-0.814c0.196-2.606,0.521-5.113,0.966-7.524c0.054-0.271,0.109-0.543,0.163-0.814
							c0.532-2.671,1.216-5.189,2.03-7.524c0.087-0.271,0.185-0.543,0.293-0.814c1.021-2.812,2.247-5.341,3.626-7.524
							c0.174-0.271,0.347-0.554,0.532-0.814c2.682-3.952,5.895-6.622,9.413-7.524c0.868-0.217,1.748-0.337,2.649-0.337
							c0.901,0,1.781,0.12,2.649,0.337c3.517,0.901,6.731,3.572,9.413,7.524c0.185,0.261,0.358,0.543,0.532,0.814
							c1.379,2.182,2.606,4.712,3.626,7.524c0.108,0.271,0.206,0.543,0.293,0.814c0.814,2.334,1.498,4.853,2.03,7.524
							c0.054,0.271,0.109,0.543,0.163,0.814c0.445,2.41,0.771,4.918,0.966,7.524c0.022,0.272,0.033,0.543,0.054,0.814
							c0.098,1.509,0.141,3.051,0.141,4.614h10.27V242.669H275.599z"/>
						<path style="fill:#FBEED1;" d="M346.411,430.683h-55.381c-0.957,0-1.733-0.776-1.733-1.732V402.25
							c0-0.957,0.776-1.733,1.733-1.733h55.381c0.957,0,1.733,0.776,1.733,1.733v26.701
							C348.143,429.908,347.367,430.683,346.411,430.683z"/>
						<rect x="320.02" y="242.669" style="fill:#FCF5E6;" width="48.463" height="93.694"/>
						<g>
							
								<line style="opacity:0.4;fill:none;stroke:#ECA85E;stroke-width:3;stroke-linecap:round;stroke-miterlimit:10;" x1="297.895" y1="408.722" x2="339.545" y2="408.722"/>
							
								<line style="opacity:0.4;fill:none;stroke:#ECA85E;stroke-width:3;stroke-linecap:round;stroke-miterlimit:10;" x1="297.895" y1="415.601" x2="339.545" y2="415.601"/>
							
								<line style="opacity:0.4;fill:none;stroke:#ECA85E;stroke-width:3;stroke-linecap:round;stroke-miterlimit:10;" x1="297.895" y1="422.479" x2="324.846" y2="422.479"/>
						</g>
					</g>
				</g>
				<polygon style="fill:#ECA85E;" points="436.589,275.206 299.285,275.206 275.599,242.669 412.904,242.669 				"/>
				<polygon style="fill:#F4D071;" points="102.911,275.206 252.058,275.206 275.744,242.669 126.597,242.669 				"/>
				<g>
					<g>
						<path style="fill:#21255C;" d="M116.034,342.922H91.452c-0.3,0-0.543-0.243-0.543-0.543v-35.536
							c0-0.3,0.243-0.543,0.543-0.543h9.331c0.3,0,0.543,0.243,0.543,0.543c0,0.3-0.243,0.543-0.543,0.543h-8.788v34.45h24.039
							c0.3,0,0.543,0.243,0.543,0.543C116.577,342.68,116.334,342.922,116.034,342.922z"/>
						<path style="fill:#21255C;" d="M88.137,338.063h6.63c1.541,0,2.79-1.249,2.79-2.79v-21.324c0-1.541-1.249-2.79-2.79-2.79
							h-6.63c-1.541,0-2.79,1.249-2.79,2.79v21.324C85.347,336.814,86.596,338.063,88.137,338.063z"/>
					</g>
					<path style="fill:#10164F;" d="M255.276,441.359h-39.735c0-21.16,8.892-38.302,19.868-38.302
						C246.384,403.057,255.276,420.199,255.276,441.359z"/>
					<g>
						<path style="fill:#21255C;" d="M233.325,407.885h-20.248c-9.099,0-16.474,13.841-16.474,30.916
							c0,17.074,7.376,30.915,16.474,30.915c0.291,0,0.58-0.015,0.867-0.043h18.508v-0.001c0.289,0.028,0.581,0.044,0.874,0.044
							c9.099,0,16.474-13.841,16.474-30.915C249.799,421.726,242.423,407.885,233.325,407.885z"/>
						<g>
							<ellipse style="fill:#495375;" cx="233.325" cy="438.8" rx="17.056" ry="30.916"/>
							<path style="fill:#C7D2D7;" d="M231.642,423.54c0.88-0.827,1.846-1.285,2.859-1.285c4.112,0,7.447,7.521,7.447,16.799
								c0,9.278-3.335,16.8-7.447,16.8c-1.013,0-1.979-0.458-2.859-1.285c2.694-2.529,4.588-8.522,4.588-15.515
								C236.23,432.062,234.336,426.069,231.642,423.54z"/>
							<path style="fill:#99A3B0;" d="M231.642,423.54c2.694,2.529,4.588,8.522,4.588,15.515c0,6.993-1.895,12.986-4.588,15.515
								c-2.694-2.529-4.588-8.522-4.588-15.515C227.053,432.062,228.948,426.069,231.642,423.54z"/>
						</g>
					</g>
					<g>
						<path style="fill:#21255C;" d="M121.92,407.885h-20.249c-9.099,0-16.474,13.841-16.474,30.916
							c0,17.074,7.376,30.915,16.474,30.915c0.291,0,0.58-0.015,0.867-0.043h18.508v-0.001c0.289,0.028,0.58,0.044,0.874,0.044
							c9.099,0,16.474-13.841,16.474-30.915C138.394,421.726,131.018,407.885,121.92,407.885z"/>
					</g>
					<g>
						<path style="fill:#DF4268;" d="M266.719,290.951v150.408h-11.367c0-21.16-8.892-38.302-19.868-38.302
							c-10.976,0-19.868,17.143-19.868,38.302H68.65v-57.703c0-2.768,0.554-5.504,1.629-8.056l33.373-79.438
							c1.325-3.159,4.419-5.211,7.839-5.211H266.719z"/>
						<rect x="244.562" y="362.416" style="fill:#F4C84D;" width="12.087" height="2.634"/>
						<g>
							<g>
								<path style="fill:#FFFFFF;" d="M86.946,371.698h-6.418c-1.069,0-1.594-0.867-1.171-1.937l2.538-6.418
									c0.423-1.069,1.633-1.936,2.702-1.936h6.418c1.07,0,1.594,0.867,1.171,1.936l-2.538,6.418
									C89.226,370.832,88.016,371.698,86.946,371.698z"/>
								<path style="fill:#C6204F;" d="M86.947,372.242h-6.419c-0.676,0-1.231-0.268-1.562-0.756
									c-0.351-0.516-0.393-1.217-0.113-1.923l2.538-6.419c0.506-1.279,1.915-2.279,3.207-2.279h6.418
									c0.676,0,1.231,0.268,1.563,0.756c0.351,0.516,0.392,1.217,0.113,1.922l-2.538,6.419
									C89.649,371.24,88.24,372.242,86.947,372.242z M84.597,361.95c-0.85,0-1.856,0.729-2.198,1.592l-2.538,6.419
									c-0.145,0.367-0.144,0.7,0.002,0.914c0.157,0.232,0.448,0.281,0.664,0.281h6.419c0.85,0,1.856-0.729,2.197-1.594
									l2.538-6.419c0.145-0.366,0.144-0.699-0.001-0.913c-0.158-0.232-0.449-0.281-0.665-0.281H84.597z"/>
							</g>
							<g>
								<path style="fill:#FFFFFF;" d="M188.626,371.698h-6.418c-1.07,0-1.594-0.867-1.171-1.937l2.538-6.418
									c0.423-1.069,1.633-1.936,2.702-1.936h6.418c1.07,0,1.594,0.867,1.171,1.936l-2.538,6.418
									C190.905,370.832,189.695,371.698,188.626,371.698z"/>
								<path style="fill:#C6204F;" d="M188.626,372.242h-6.419c-0.676,0-1.231-0.268-1.562-0.756
									c-0.351-0.516-0.393-1.217-0.113-1.923l2.538-6.419c0.506-1.279,1.915-2.279,3.207-2.279h6.418
									c0.676,0,1.231,0.268,1.563,0.756c0.351,0.516,0.392,1.217,0.113,1.922l-2.538,6.419
									C191.328,371.24,189.919,372.242,188.626,372.242z M186.277,361.95c-0.85,0-1.856,0.729-2.198,1.592l-2.538,6.419
									c-0.145,0.367-0.144,0.7,0.002,0.914c0.157,0.232,0.448,0.281,0.664,0.281h6.419c0.85,0,1.856-0.729,2.197-1.594
									l2.538-6.419c0.145-0.366,0.144-0.699-0.001-0.913c-0.158-0.232-0.449-0.281-0.665-0.281H186.277z"/>
							</g>
						</g>
						<path style="fill:#C6204F;" d="M196.195,386.658v51.383c0,0.225,0.182,0.407,0.407,0.407c0.225,0,0.407-0.182,0.407-0.407
							v-64.024l9.27-21.428v67.987c0,0.225,0.182,0.407,0.407,0.407h7.053c0.179,0,0.337-0.117,0.39-0.288l2.276-7.47
							c2.212-7.262,7.503-13.093,14.517-15.998c3.083-1.279,6.341-1.926,9.681-1.926h20.669c0.225,0,0.407-0.182,0.407-0.407
							v-96.074c0-0.225-0.182-0.407-0.407-0.407h-32.176c-0.162,0-0.31,0.096-0.373,0.245l-22.41,51.803l-10.084,23.311
							c-0.022,0.051-0.033,0.106-0.033,0.162v11.64 M260.864,394.485h-20.262c-3.448,0-6.81,0.669-9.993,1.988
							c-7.239,2.999-12.701,9.018-14.985,16.513l-2.188,7.182h-6.344v-69.462l22.269-51.481h31.501V394.485z"/>
						<g>
							<g>
								<path style="fill:#AD1245;" d="M203.472,417.965v20.47c0,3.201-2.356,5.78-5.255,5.78H68.665
									c-2.899,0-5.255-2.58-5.255-5.78v-20.47c0-3.189,2.356-5.78,5.255-5.78h129.553
									C201.116,412.185,203.472,414.776,203.472,417.965z"/>
								<path style="fill:#C6204F;" d="M185.157,417.965v20.47c0,3.201-2.356,5.78-5.255,5.78H68.665
									c-2.899,0-5.255-2.58-5.255-5.78v-20.47c0-3.189,2.356-5.78,5.255-5.78h111.237
									C182.801,412.185,185.157,414.776,185.157,417.965z"/>
							</g>
							<g>
								<g>
									<path style="fill:#FFFFFF;" d="M90.732,435.569H72.01c-0.764,0-1.383-0.681-1.383-1.522v-7.722
										c0-0.841,0.619-1.522,1.383-1.522h14.927c0.508,0,0.975,0.306,1.217,0.798l3.795,7.722
										C92.447,434.337,91.779,435.569,90.732,435.569z"/>
									<path style="fill:#F4C84D;" d="M89.679,434.281h-8.965c-0.366,0-0.662-0.326-0.662-0.729v-3.698
										c0-0.402,0.297-0.729,0.662-0.729h7.148c0.243,0,0.467,0.147,0.583,0.382l1.817,3.698
										C90.5,433.691,90.181,434.281,89.679,434.281z"/>
									<ellipse style="fill:#D6E9EA;" cx="75.258" cy="429.936" rx="3.865" ry="4.252"/>
								</g>
								<g>
									<path style="fill:#FFFFFF;" d="M158.332,435.569h18.722c0.764,0,1.383-0.681,1.383-1.522v-7.722
										c0-0.841-0.619-1.522-1.383-1.522h-14.927c-0.508,0-0.975,0.306-1.217,0.798l-3.795,7.722
										C156.617,434.337,157.285,435.569,158.332,435.569z"/>
									<path style="fill:#F4C84D;" d="M159.385,434.281h8.965c0.366,0,0.662-0.326,0.662-0.729v-3.698
										c0-0.402-0.296-0.729-0.662-0.729h-7.148c-0.243,0-0.467,0.147-0.583,0.382l-1.817,3.698
										C158.564,433.691,158.884,434.281,159.385,434.281z"/>
									<path style="fill:#D6E9EA;" d="M169.941,429.936c0,2.348,1.73,4.252,3.865,4.252c2.135,0,3.865-1.904,3.865-4.252
										c0-2.348-1.73-4.252-3.865-4.252C171.672,425.684,169.941,427.588,169.941,429.936z"/>
								</g>
							</g>
							<path style="fill:#C6204F;" d="M150.015,434.694H99.141c-0.34,0-0.656-0.194-0.834-0.514l-4.318-7.737
								c-0.401-0.718,0.069-1.641,0.835-1.641h59.508c0.766,0,1.235,0.923,0.834,1.641l-4.318,7.737
								C150.671,434.5,150.355,434.694,150.015,434.694z"/>
						</g>
						<g>
							<g>
								<g>
									<g>
										<path style="fill:#7DD3E9;" d="M220.795,307.203l-17.089,39.963c-0.64,1.498-2.117,2.464-3.735,2.464H90.862
											c-2.91,0-4.875-2.975-3.735-5.656l17.099-39.963c0.64-1.498,2.106-2.464,3.735-2.464h109.109
											C219.981,301.547,221.946,304.522,220.795,307.203z"/>
										<path style="fill:#26407A;" d="M217.066,303.714c0.646,0,1.221,0.309,1.577,0.849c0.356,0.54,0.414,1.19,0.16,1.784
											l-17.098,39.966c-0.298,0.697-0.98,1.147-1.738,1.147H90.864c-0.646,0-1.221-0.309-1.577-0.849
											c-0.356-0.539-0.414-1.19-0.16-1.784l17.098-39.966c0.298-0.697,0.98-1.147,1.738-1.147H217.066 M217.066,301.542H107.962
											c-1.626,0-3.094,0.969-3.734,2.464L87.13,343.972c-1.146,2.68,0.819,5.659,3.734,5.659h109.104
											c1.626,0,3.094-0.969,3.734-2.464l17.098-39.966C221.946,304.521,219.98,301.542,217.066,301.542L217.066,301.542z"/>
									</g>
									<path style="fill:#214084;" d="M129.642,348.934c-0.125,0-0.248-0.057-0.327-0.164l-5.449-7.328h-24
										c-0.225,0-0.407-0.182-0.407-0.407c0-0.225,0.182-0.407,0.407-0.407h24.205c0.129,0,0.25,0.061,0.327,0.164l5.571,7.493
										c0.134,0.18,0.097,0.436-0.084,0.569C129.812,348.907,129.727,348.934,129.642,348.934z"/>
									<path style="fill:#214084;" d="M181.137,348.934c-0.125,0-0.248-0.057-0.327-0.164l-5.449-7.328h-24
										c-0.225,0-0.407-0.182-0.407-0.407c0-0.225,0.182-0.407,0.407-0.407h24.205c0.129,0,0.25,0.061,0.327,0.164l5.571,7.493
										c0.134,0.18,0.097,0.436-0.084,0.569C181.306,348.907,181.221,348.934,181.137,348.934z"/>
								</g>
								<g style="opacity:0.4;">
									<polygon style="fill:#FFFFFF;" points="173.286,301.547 125.202,349.631 108.32,349.631 156.404,301.547 									"/>
									<polygon style="fill:#FFFFFF;" points="185.419,301.547 137.334,349.631 132.807,349.631 180.902,301.547 									"/>
								</g>
							</g>
							<g>
								<g>
									<path style="fill:#7DD3E9;" d="M258.565,304.391v42.384c0,1.574-1.281,2.855-2.855,2.855h-40.43
										c-0.358,0-0.695-0.065-0.999-0.185c-1.466-0.532-2.291-2.237-1.629-3.789l5.721-13.365l12.409-29.02
										c0.445-1.053,1.487-1.726,2.627-1.726h22.3C257.284,301.547,258.565,302.817,258.565,304.391z"/>
									<path style="fill:#26407A;" d="M255.709,303.714c0.376,0,0.681,0.306,0.681,0.681v42.383c0,0.376-0.306,0.681-0.681,0.681
										h-40.434c-0.319,0-0.493-0.192-0.569-0.306c-0.075-0.114-0.183-0.35-0.058-0.643l18.132-42.383
										c0.107-0.251,0.353-0.413,0.626-0.413H255.709 M255.709,301.542h-22.302c-1.142,0-2.173,0.681-2.623,1.73l-18.132,42.383
										c-0.805,1.882,0.575,3.975,2.623,3.975h40.434c1.575,0,2.852-1.277,2.852-2.853v-42.383
										C258.562,302.819,257.285,301.542,255.709,301.542L255.709,301.542z"/>
								</g>
								<g style="opacity:0.4;">
									<path style="fill:#FFFFFF;" d="M258.565,304.391v0.771l-44.284,44.284c-1.466-0.532-2.291-2.237-1.629-3.789l5.721-13.365
										l30.735-30.746h6.601C257.284,301.547,258.565,302.817,258.565,304.391z"/>
									<polygon style="fill:#FFFFFF;" points="258.565,310.384 258.565,316.04 224.975,349.631 219.318,349.631 									"/>
								</g>
							</g>
						</g>
						<g>
							<g>
								<path style="fill:#214084;" d="M152.579,409.086h-18.643c-1.68,0-3.043-1.362-3.043-3.043v-8.575
									c0-1.68,1.362-3.043,3.043-3.043h18.643c1.68,0,3.043,1.362,3.043,3.043v8.575
									C155.622,407.724,154.26,409.086,152.579,409.086z M123.812,406.043v-8.575c0-1.68-1.362-3.043-3.043-3.043h-18.643
									c-1.68,0-3.043,1.362-3.043,3.043v8.575c0,1.681,1.362,3.043,3.043,3.043h18.643
									C122.449,409.086,123.812,407.724,123.812,406.043z"/>
								<g>
									<defs>
										<path id="SVGID_1_" d="M152.579,409.086h-18.643c-1.68,0-3.043-1.362-3.043-3.043v-8.575c0-1.68,1.362-3.043,3.043-3.043
											h18.643c1.68,0,3.043,1.362,3.043,3.043v8.575C155.622,407.724,154.26,409.086,152.579,409.086z M123.812,406.043v-8.575
											c0-1.68-1.362-3.043-3.043-3.043h-18.643c-1.68,0-3.043,1.362-3.043,3.043v8.575c0,1.681,1.362,3.043,3.043,3.043h18.643
											C122.449,409.086,123.812,407.724,123.812,406.043z"/>
									</defs>
									<clipPath id="SVGID_00000123401163289841691290000013497652291736536451_">
										<use xlink:href="#SVGID_1_"  style="overflow:visible;"/>
									</clipPath>
									<g style="clip-path:url(#SVGID_00000123401163289841691290000013497652291736536451_);">
										<polygon style="fill:#21255C;" points="160.316,407.312 158.36,408.604 93.95,408.604 92.369,407.312 										"/>
										<polygon style="fill:#21255C;" points="164.932,404.278 162.978,405.562 90.213,405.562 88.632,404.278 										"/>
										<polygon style="fill:#21255C;" points="169.563,401.235 167.595,402.527 86.476,402.527 84.882,401.235 										"/>
										<polygon style="fill:#21255C;" points="174.181,398.192 172.226,399.484 82.727,399.484 81.146,398.192 										"/>
										<polygon style="fill:#21255C;" points="178.812,395.15 176.844,396.442 78.991,396.442 77.397,395.15 										"/>
									</g>
								</g>
							</g>
							<g>
								<path style="fill:#FFFFFF;" d="M91.255,408.571h-17.9c-1.084,0-1.963-0.879-1.963-1.962v-9.315
									c0-1.084,0.879-1.962,1.963-1.962h17.9c1.084,0,1.962,0.879,1.962,1.962v9.315
									C93.218,407.693,92.339,408.571,91.255,408.571z"/>
								<g>
									<path style="fill:#D6E9EA;" d="M83.169,401.951c0,3.229-2.38,5.848-5.316,5.848c-2.936,0-5.316-2.618-5.316-5.848
										s2.38-5.848,5.316-5.848C80.79,396.104,83.169,398.722,83.169,401.951z"/>
									<path style="fill:#FFFFFF;" d="M78.084,400.086c0,1.21-0.892,2.191-1.992,2.191c-1.1,0-1.992-0.981-1.992-2.191
										c0-1.21,0.892-2.191,1.992-2.191C77.192,397.895,78.084,398.876,78.084,400.086z"/>
								</g>
								<g>
									<path style="fill:#D6E9EA;" d="M92.516,402.684c0,2.645-1.949,4.789-4.354,4.789c-2.404,0-4.354-2.144-4.354-4.789
										c0-2.645,1.949-4.789,4.354-4.789C90.567,397.895,92.516,400.039,92.516,402.684z"/>
									<path style="fill:#FFFFFF;" d="M88.352,401.156c0,0.991-0.73,1.795-1.632,1.795c-0.901,0-1.632-0.804-1.632-1.795
										c0-0.991,0.731-1.795,1.632-1.795C87.621,399.362,88.352,400.165,88.352,401.156z"/>
								</g>
							</g>
							<g>
								<path style="fill:#FFFFFF;" d="M163.037,408.571h17.9c1.084,0,1.962-0.879,1.962-1.962v-9.315
									c0-1.084-0.878-1.962-1.962-1.962h-17.9c-1.084,0-1.962,0.879-1.962,1.962v9.315
									C161.074,407.693,161.953,408.571,163.037,408.571z"/>
								<g>
									<path style="fill:#D6E9EA;" d="M171.123,401.951c0,3.229,2.38,5.848,5.316,5.848c2.936,0,5.316-2.618,5.316-5.848
										s-2.38-5.848-5.316-5.848C173.503,396.104,171.123,398.722,171.123,401.951z"/>
									<path style="fill:#FFFFFF;" d="M176.208,400.086c0,1.21,0.892,2.191,1.992,2.191s1.992-0.981,1.992-2.191
										c0-1.21-0.892-2.191-1.992-2.191S176.208,398.876,176.208,400.086z"/>
								</g>
								<g>
									<path style="fill:#D6E9EA;" d="M161.776,402.684c0,2.645,1.949,4.789,4.354,4.789c2.404,0,4.354-2.144,4.354-4.789
										c0-2.645-1.949-4.789-4.354-4.789C163.725,397.895,161.776,400.039,161.776,402.684z"/>
									<path style="fill:#FFFFFF;" d="M165.941,401.156c0,0.991,0.73,1.795,1.632,1.795c0.901,0,1.632-0.804,1.632-1.795
										c0-0.991-0.73-1.795-1.632-1.795C166.671,399.362,165.941,400.165,165.941,401.156z"/>
								</g>
							</g>
						</g>
						<rect x="82.406" y="381.598" style="fill:#C6204F;" width="90.343" height="4.756"/>
					</g>
					<g>
						<path style="fill:#21255C;" d="M240.203,342.922h-24.582c-0.3,0-0.543-0.243-0.543-0.543c0-0.3,0.243-0.543,0.543-0.543
							h24.039v-34.45h-8.788c-0.3,0-0.543-0.243-0.543-0.543c0-0.3,0.243-0.543,0.543-0.543h9.331c0.3,0,0.543,0.243,0.543,0.543
							v35.536C240.746,342.68,240.503,342.922,240.203,342.922z"/>
						<path style="fill:#21255C;" d="M243.518,338.063h-6.629c-1.541,0-2.79-1.249-2.79-2.79v-21.324c0-1.541,1.249-2.79,2.79-2.79
							h6.629c1.541,0,2.79,1.249,2.79,2.79v21.324C246.308,336.814,245.059,338.063,243.518,338.063z"/>
					</g>
				</g>
			</g>
		</g>
		<path style="fill:none;stroke:#BA3C17;stroke-width:0.7925;stroke-miterlimit:10;" d="M130.011,271.799"/>
	</g>
	
		<line style="fill:none;stroke:#59595B;stroke-width:4;stroke-linecap:round;stroke-miterlimit:10;" x1="58.886" y1="471.825" x2="441.114" y2="471.825"/>
</g>
</svg>
